<svg width="168" height="60" viewBox="0 0 168 60" fill="none" xmlns="http://www.w3.org/2000/svg">
<mask id="mask0_3090_46905" style="mask-type:luminance" maskUnits="userSpaceOnUse" x="0" y="0" width="170" height="60">
<path d="M169.887 0.297852H0.15625V59.1856H169.887V0.297852Z" fill="white"/>
</mask>
<g mask="url(#mask0_3090_46905)">
<path d="M119.155 58.1024L116.921 55.361C118.248 55.0135 119.013 54.1521 119.013 52.9093C119.013 51.2544 117.661 50.2705 115.414 50.2705H112.211V58.1024H112.861V55.5406H115.413C115.719 55.5406 116 55.5183 116.283 55.4843L118.414 58.1024H119.155ZM112.862 55.0367V50.7844H115.414C117.329 50.7844 118.349 51.5572 118.349 52.9093C118.349 54.2522 117.329 55.0358 115.414 55.0358L112.862 55.0367Z" fill="#EFF6FB"/>
</g>
</svg>
