<svg xmlns="http://www.w3.org/2000/svg" width="161" height="62" viewBox="0 0 161 62" fill="none">
  <g clip-path="url(#clip0_860_387)">
    <path d="M81.9637 6.51537V11.6567L77.7046 6.51537H75.4582V16.1638H78.1318V11.0225L82.391 16.1638H84.6378V6.51537H81.9637Z" fill="#EFF6FB" />
    <path d="M89.2689 14.0547V12.2904H93.5557V10.2505H89.2689V8.62398H94.1346V6.51537H86.5676V16.1638H94.3139V14.0547H89.2689Z" fill="#EFF6FB" />
    <path d="M108.221 6.51537L106.195 12.7315L104.252 6.51537H101.744L99.7032 12.6766L97.76 6.51537H94.9481L98.0767 16.1638H100.999L102.928 10.292L104.776 16.1638H107.698L110.827 6.51537H108.221Z" fill="#EFF6FB" />
    <path d="M77.5721 28.7182V26.0651H82.2175V24.5946H77.5721V22.0931H82.8089V20.5951H75.7851V30.2163H83.0011V28.7182H77.5721Z" fill="#EFF6FB" />
    <path d="M84.9942 30.2163H89.1998C92.3199 30.2163 94.4504 28.2918 94.4504 25.4054C94.4504 22.519 92.3199 20.5951 89.1998 20.5951H84.9942V30.2163ZM86.7808 28.7044V22.107H89.1177C91.2616 22.107 92.6499 23.4123 92.6499 25.4054C92.6499 27.3985 91.2616 28.7044 89.1177 28.7044H86.7808Z" fill="#EFF6FB" />
    <path d="M100.485 30.3536C103.11 30.3536 104.69 28.8279 104.69 26.024V20.5951H102.931V25.9553C102.931 27.9346 102.051 28.7869 100.498 28.7869C98.945 28.7869 98.0517 27.9346 98.0517 25.9553V20.5951H96.2646V26.024C96.2646 28.8279 97.8456 30.3536 100.485 30.3536Z" fill="#EFF6FB" />
    <path d="M111.645 30.3536C113.226 30.3536 114.573 29.7899 115.466 28.7454L114.312 27.6461C113.611 28.4158 112.745 28.7869 111.742 28.7869C109.748 28.7869 108.305 27.3847 108.305 25.4054C108.305 23.4262 109.748 22.0244 111.742 22.0244C112.745 22.0244 113.611 22.3955 114.312 23.1514L115.466 22.0655C114.573 21.021 113.226 20.4573 111.659 20.4573C108.704 20.4573 106.505 22.5329 106.505 25.4054C106.505 28.278 108.704 30.3536 111.645 30.3536Z" fill="#EFF6FB" />
    <path d="M124.181 30.2163H126.05L121.706 20.5951H119.947L115.618 30.2163H117.459L118.408 27.9895H123.218L124.181 30.2163ZM119.012 26.5877L120.813 22.3817L122.627 26.5877H119.012Z" fill="#EFF6FB" />
    <path d="M128.744 30.2163H130.53V22.107H133.719V20.5951H125.555V22.107H128.744V30.2163Z" fill="#EFF6FB" />
    <path d="M135.066 30.2163H136.853V20.5951H135.066V30.2163Z" fill="#EFF6FB" />
    <path d="M143.945 30.3536C146.928 30.3536 149.127 28.2646 149.127 25.4054C149.127 22.5467 146.928 20.4573 143.945 20.4573C140.963 20.4573 138.764 22.5605 138.764 25.4054C138.764 28.2508 140.963 30.3536 143.945 30.3536ZM143.945 28.7869C142.007 28.7869 140.564 27.3709 140.564 25.4054C140.564 23.44 142.007 22.0244 143.945 22.0244C145.883 22.0244 147.327 23.44 147.327 25.4054C147.327 27.3709 145.883 28.7869 143.945 28.7869Z" fill="#EFF6FB" />
    <path d="M157.8 20.5951V27.11L152.495 20.5951H151.024V30.2163H152.797V23.7013L158.102 30.2163H159.573V20.5951H157.8Z" fill="#EFF6FB" />
    <path d="M78.7401 43.1449C81.2827 43.1449 82.4646 41.8805 82.4646 40.4097C82.4646 36.8775 76.6373 38.3483 76.6373 35.998C76.6373 35.1595 77.338 34.4723 78.9739 34.4723C79.8257 34.4723 80.7743 34.7198 81.6127 35.2559L82.0663 34.1561C81.2689 33.6066 80.1009 33.3043 78.9739 33.3043C76.4447 33.3043 75.2905 34.5686 75.2905 36.0528C75.2905 39.6265 81.1177 38.1418 81.1177 40.4922C81.1177 41.3306 80.4032 41.9769 78.7401 41.9769C77.503 41.9769 76.2797 41.5095 75.5652 40.8632L75.0568 41.9354C75.8261 42.6503 77.2693 43.1449 78.7401 43.1449Z" fill="#EFF6FB" />
    <path d="M87.2535 43.0347H88.6142V34.6096H91.9127V33.414H83.955V34.6096H87.2535V43.0347Z" fill="#EFF6FB" />
    <path d="M101.127 43.0347H102.57L98.1998 33.414H96.839L92.4822 43.0347H93.8978L94.9561 40.6295H100.069L101.127 43.0347ZM95.4369 39.5302L97.5125 34.8161L99.5877 39.5302H95.4369Z" fill="#EFF6FB" />
    <path d="M111.908 33.414V40.5885L106.136 33.414H105.009V43.0347H106.383V35.8606L112.155 43.0347H113.282V33.414H111.908Z" fill="#EFF6FB" />
    <path d="M117.178 43.0347H121.233C124.325 43.0347 126.428 41.0831 126.428 38.2243C126.428 35.3656 124.325 33.414 121.233 33.414H117.178V43.0347ZM118.553 41.839V34.6096H121.15C123.528 34.6096 125.053 36.0667 125.053 38.2243C125.053 40.3825 123.528 41.839 121.15 41.839H118.553Z" fill="#EFF6FB" />
    <path d="M136.59 43.0347H138.034L133.663 33.414H132.302L127.945 43.0347H129.361L130.419 40.6295H135.532L136.59 43.0347ZM130.901 39.5302L132.976 34.8161L135.051 39.5302H130.901Z" fill="#EFF6FB" />
    <path d="M148.403 43.0347L146.121 39.8049C147.468 39.3241 148.238 38.252 148.238 36.7678C148.238 34.6783 146.726 33.414 144.224 33.414H140.472V43.0347H141.847V40.1073H144.224C144.43 40.1073 144.637 40.0939 144.829 40.0801L146.904 43.0347H148.403ZM144.183 38.9393H141.847V34.6096H144.183C145.942 34.6096 146.863 35.3932 146.863 36.7678C146.863 38.1418 145.942 38.9393 144.183 38.9393Z" fill="#EFF6FB" />
    <path d="M151.473 43.0347H155.528C158.62 43.0347 160.723 41.0831 160.723 38.2243C160.723 35.3656 158.62 33.414 155.528 33.414H151.473V43.0347ZM152.848 41.839V34.6096H155.445C157.823 34.6096 159.349 36.0667 159.349 38.2243C159.349 40.3825 157.823 41.839 155.445 41.839H152.848Z" fill="#EFF6FB" />
    <path d="M83.357 55.9767H84.1129L79.6879 46.3568H78.9868L74.5617 55.9767H75.3177L76.5406 53.2696H82.1203L83.357 55.9767ZM76.8157 52.6787L79.3306 47.1266L81.8589 52.6787H76.8157Z" fill="#EFF6FB" />
    <path d="M102.13 46.3568L99.1756 55.0286L96.1799 46.3568H95.5065L92.497 55.0147L89.57 46.3568H88.8279L92.0982 55.9767H92.8404L95.8365 47.3465L98.8183 55.9767H99.5604L102.817 46.3568H102.13Z" fill="#EFF6FB" />
    <path d="M116.328 55.9767H117.084L112.659 46.3568H111.957L107.532 55.9767H108.288L109.511 53.2696H115.091L116.328 55.9767ZM109.786 52.6787L112.301 47.1266L114.83 52.6787H109.786Z" fill="#EFF6FB" />
    <path d="M130.896 55.9767L128.491 52.61C129.92 52.1836 130.744 51.1258 130.744 49.6C130.744 47.5664 129.288 46.3568 126.869 46.3568H123.42V55.9767H124.121V52.8299H126.869C127.199 52.8299 127.501 52.8022 127.804 52.7612L130.099 55.9767H130.896ZM124.121 52.2113V46.9893H126.869C128.931 46.9893 130.03 47.9374 130.03 49.6C130.03 51.2493 128.931 52.2113 126.869 52.2113H124.121Z" fill="#EFF6FB" />
    <path d="M137.906 55.9767H141.713C144.763 55.9767 146.824 53.9702 146.824 51.1668C146.824 48.3633 144.763 46.3568 141.713 46.3568H137.906V55.9767ZM138.607 55.3448V46.9893H141.657C144.378 46.9893 146.124 48.7206 146.124 51.1668C146.124 53.613 144.378 55.3448 141.657 55.3448H138.607Z" fill="#EFF6FB" />
    <path d="M156.377 56.0454C158.754 56.0454 159.84 54.8635 159.84 53.5033C159.84 50.0126 153.834 51.7167 153.834 48.8307C153.834 47.7724 154.673 46.9067 156.541 46.9067C157.408 46.9067 158.383 47.1676 159.18 47.7175L159.441 47.1543C158.699 46.6182 157.6 46.2882 156.541 46.2882C154.178 46.2882 153.134 47.4839 153.134 48.8445C153.134 52.3901 159.139 50.6584 159.139 53.5443C159.139 54.5888 158.287 55.4268 156.363 55.4268C155.071 55.4268 153.848 54.905 153.189 54.2178L152.872 54.74C153.573 55.5093 154.948 56.0454 156.377 56.0454Z" fill="#EFF6FB" />
    <path opacity="0.998077" d="M19.7646 4.98788C19.7646 4.98788 -6.61081 22.2345 1.65728 34.2288C4.30553 38.3755 12.8992 42.2605 36.7321 47.1739C43.6181 48.9922 46.6619 52.3134 44.8334 54.9188C44.8334 54.9188 51.2047 48.9583 43.5298 45.125C35.7465 41.4622 9.50926 38.2908 3.82387 31.3535C2.95108 29.7056 -1.71168 24.8596 25.719 7.31457" fill="url(#paint0_radial_860_387)" />
    <path opacity="0.998077" d="M26.0655 54.3391C27.8378 54.4595 28.8881 54.6437 31.8695 54.9188C37.9082 55.6908 40.3856 57.7629 39.2902 60.1609C39.2902 60.1609 43.3358 55.3118 36.712 53.1483C35.2041 52.6952 32.1394 51.8817 29.8929 51.5793" fill="url(#paint1_radial_860_387)" />
    <path opacity="0.998077" d="M21.3381 59.4157C22.771 59.4157 24.6312 59.1579 26.9833 59.0362C31.8718 58.5317 34.0299 59.5994 33.447 61.5903C33.447 61.5903 36.0671 57.5787 30.6235 56.5984C29.3979 56.4156 26.5833 56.0548 24.4907 56.0548" fill="url(#paint2_radial_860_387)" />
    <path opacity="0.998077" d="M39.164 4.62931C39.164 4.62931 -0.437506 26.9419 0.512885 38.9807C0.738998 43.0089 1.78038 49.8074 26.2907 54.3391C27.5074 53.3989 29.9295 51.6012 29.9295 51.6012C29.9295 51.6012 13.5517 48.0204 9.03697 45.9782C5.84328 44.4204 1.97304 41.8935 9.31972 35.2505C14.1395 30.8282 26.1783 22.0525 43.9766 11.291" fill="url(#paint3_radial_860_387)" />
    <path opacity="0.998077" d="M59.6917 8.56422C59.6917 8.56422 20.3038 28.2776 7.25659 47.6538C6.58583 48.6746 5.81785 49.7575 6.25134 50.3493C6.68439 50.9411 8.8104 53.9586 11.9287 55.6908C11.9287 55.6908 10.2028 53.985 10.7081 53.2054C11.4658 52.2514 22.2363 35.2273 65.9877 17.1953" fill="url(#paint4_radial_860_387)" />
    <path opacity="0.998077" d="M58.5835 28.4363C58.5835 28.4363 24.5309 41.4961 13.5508 56.878C13.5508 56.878 16.2079 59.8777 21.4928 59.4112C21.4928 59.4112 25.8091 50.5295 57.803 37.1419" fill="url(#paint5_radial_860_387)" />
    <path d="M44.2456 5.84417L48.7018 6.86502L44.5609 8.694L44.8334 13.1382L41.9572 9.83527L37.5531 11.5407L40.0266 7.68876L37.1063 4.0977L41.5857 5.1074L43.7889 1.50965L44.2456 5.84417Z" fill="#EFF6FB" />
    <path d="M59.1691 32.5349L63.6253 33.5558L59.4844 35.3852L59.7569 39.829L56.8807 36.526L52.4766 38.2315L54.9501 34.3795L52.0298 30.7885L56.5092 31.7982L58.7124 28.2004L59.1691 32.5349Z" fill="#EFF6FB" />
    <path d="M65.9235 9.44414L71.4537 10.7112L66.3146 12.9808L66.6531 18.4958L63.0835 14.3972L57.6179 16.5134L60.6876 11.7334L57.0631 7.27666L62.6228 8.52943L65.3562 4.06514L65.9235 9.44414Z" fill="#EFF6FB" />
    <path opacity="0.998077" d="M3.29092 27.1466C0.257343 31.6274 1.70902 34.3581 1.70902 34.3581C2.63399 32.7147 3.80023 31.2483 3.80023 31.2483C2.36194 29.3109 3.29092 27.1466 3.29092 27.1466ZM9.53737 35.0552C9.4843 35.1033 9.37458 35.1957 9.32284 35.2429C8.07008 36.3757 7.14065 37.3632 6.48148 38.2725C8.07186 39.1417 10.2732 40.0841 12.7547 40.9801C13.8175 39.8656 14.9833 38.6726 16.1593 37.5754C13.6351 36.7976 11.5514 35.9694 9.53737 35.0552ZM24.4702 39.8807C22.895 41.0804 21.438 42.2137 20.1808 43.2858C22.0606 43.8063 24.3993 44.4066 26.6417 44.948C28.2673 43.8357 30.0691 42.6547 31.7625 41.6236C29.4081 41.051 26.9758 40.5069 24.4702 39.8807ZM5.30186 40.5243C5.30186 40.5243 3.32303 44.1345 3.3984 45.6451C4.03482 46.2489 5.14933 47.3492 6.88331 48.2456C6.88331 48.2456 7.96349 46.3479 8.59902 45.7789C8.59902 45.7789 6.59566 44.8775 5.48918 43.2051C5.05301 42.306 4.99324 41.4996 5.30186 40.5243ZM41.9885 44.4717C40.1974 45.4069 38.4045 46.3662 36.91 47.2265C43.8143 49.1318 46.5187 52.3281 44.8303 54.9286C44.8303 54.9286 51.2337 48.969 43.5588 45.1357C43.1502 44.9435 42.4929 44.6617 41.9885 44.4717ZM15.1942 48.0043C13.9227 49.3159 13.2966 49.9564 12.6205 50.7922C14.0739 51.3193 15.6964 51.8465 17.5267 52.3473C18.5302 51.3586 19.7098 50.4073 20.8511 49.452C18.9561 48.9815 17.0134 48.5105 15.1942 48.0043ZM29.9919 51.5949C29.368 52.032 28.7035 52.5145 28.1661 52.9182C27.816 53.1804 27.6733 53.3057 27.2964 53.5898C26.9209 53.8828 26.6493 54.096 26.3193 54.3689C27.9431 54.4898 29.0349 54.6593 31.8695 54.9211C37.9082 55.6931 40.3588 57.7589 39.296 60.1489C39.296 60.1489 43.346 55.3153 36.7223 53.1514C35.1783 52.6109 32.2236 51.912 29.9919 51.5949ZM10.6635 53.2589C10.6635 53.2589 10.0534 54.1335 9.96639 54.3578C9.96639 54.3578 11.8141 55.974 13.532 56.9048C13.532 56.9048 13.8862 56.4066 14.0146 56.2345C14.0146 56.2345 13.3532 56.1894 11.9564 55.1227C11.8025 54.9447 10.3963 53.807 10.6635 53.2589ZM24.3899 56.0467C24.3899 56.0467 23.5733 56.7576 22.8348 57.6019C22.0967 58.4461 21.4139 59.4251 21.4139 59.4251C22.8295 59.4108 24.8056 59.2244 27.0172 59.0228C31.8829 58.6093 33.9532 59.5963 33.4456 61.5903C33.4456 61.5903 36.0792 57.5778 30.6355 56.5975C29.4099 56.4147 26.4825 56.0467 24.3899 56.0467Z" fill="url(#paint6_linear_860_387)" />
    <path d="M24.8555 4.74615L29.3118 5.76701L25.1708 7.59599L25.4433 12.0402L22.5668 8.73726L18.1631 10.4427L20.6365 6.59074L17.7158 2.99968L22.1957 4.00894L24.3984 0.411644L24.8555 4.74615Z" fill="#EFF6FB" />
    <path d="M44.2456 5.84417L48.7018 6.86502L44.5609 8.694L44.8334 13.1382L41.9572 9.83527L37.5531 11.5407L40.0266 7.68876L37.1063 4.0977L41.5857 5.1074L43.7889 1.50965L44.2456 5.84417Z" fill="#EFF6FB" />
    <path d="M59.1691 32.5349L63.6253 33.5558L59.4844 35.3852L59.7569 39.829L56.8807 36.526L52.4766 38.2315L54.9501 34.3795L52.0298 30.7885L56.5092 31.7982L58.7124 28.2004L59.1691 32.5349Z" fill="#EFF6FB" />
    <path d="M65.9235 9.44414L71.4537 10.7112L66.3146 12.9808L66.6531 18.4958L63.0835 14.3972L57.6179 16.5134L60.6876 11.7334L57.0631 7.27666L62.6228 8.52943L65.3562 4.06514L65.9235 9.44414Z" fill="#EFF6FB" />
  </g>
  <defs>
    <radialGradient id="paint0_radial_860_387" cx="0" cy="0" r="1" gradientUnits="userSpaceOnUse" gradientTransform="translate(23.6832 29.953) scale(23.6311 23.6311)">
      <stop stop-color="white" />
      <stop offset="0.827083" stop-color="#E0AA3E" />
    </radialGradient>
    <radialGradient id="paint1_radial_860_387" cx="0" cy="0" r="1" gradientUnits="userSpaceOnUse" gradientTransform="translate(33.289 55.8694) scale(7.22385 7.22384)">
      <stop stop-color="white" />
      <stop offset="0.827083" stop-color="#E0AA3E" />
    </radialGradient>
    <radialGradient id="paint2_radial_860_387" cx="0" cy="0" r="1" gradientUnits="userSpaceOnUse" gradientTransform="translate(27.7072 58.822) scale(6.36953 6.36954)">
      <stop stop-color="white" />
      <stop offset="0.827083" stop-color="#E0AA3E" />
    </radialGradient>
    <radialGradient id="paint3_radial_860_387" cx="0" cy="0" r="1" gradientUnits="userSpaceOnUse" gradientTransform="translate(22.2357 29.4838) scale(21.7404)">
      <stop stop-color="white" />
      <stop offset="0.827083" stop-color="#E0AA3E" />
    </radialGradient>
    <radialGradient id="paint4_radial_860_387" cx="0" cy="0" r="1" gradientUnits="userSpaceOnUse" gradientTransform="translate(36.0558 32.1275) scale(29.9312 29.9312)">
      <stop stop-color="white" />
      <stop offset="0.827083" stop-color="#E0AA3E" />
    </radialGradient>
    <radialGradient id="paint5_radial_860_387" cx="0" cy="0" r="1" gradientUnits="userSpaceOnUse" gradientTransform="translate(36.0663 43.9477) scale(22.5163 22.5163)">
      <stop stop-color="white" />
      <stop offset="0.827083" stop-color="#E0AA3E" />
    </radialGradient>
    <linearGradient id="paint6_linear_860_387" x1="1.3615" y1="44.3681" x2="47.3331" y2="44.3681" gradientUnits="userSpaceOnUse">
      <stop stop-color="#E0AA3E" />
      <stop offset="1" />
    </linearGradient>
    <clipPath id="clip0_860_387">
      <rect width="161" height="61.9917" fill="white" />
    </clipPath>
  </defs>
</svg>