<svg width="178" height="73" viewBox="0 0 178 73" fill="none" xmlns="http://www.w3.org/2000/svg">
<g clip-path="url(#clip0_1221_9010)">
<mask id="mask0_1221_9010" style="mask-type:luminance" maskUnits="userSpaceOnUse" x="0" y="0" width="180" height="72">
<path d="M180 0H0.166016V71.167H180V0Z" fill="white"/>
</mask>
<g mask="url(#mask0_1221_9010)">
<path d="M93.0416 9.00586V14.0639L88.8516 9.00586H86.6406V18.4989H89.2716V13.4399L93.4616 18.4989H95.6726V9.00586H93.0416Z" fill="#EFF6FB"/>
</g>
<mask id="mask1_1221_9010" style="mask-type:luminance" maskUnits="userSpaceOnUse" x="0" y="0" width="180" height="72">
<path d="M180 0H0.166016V71.167H180V0Z" fill="white"/>
</mask>
<g mask="url(#mask1_1221_9010)">
<path d="M100.229 16.4229V14.6879H104.447V12.6809H100.229V11.0799H105.016V9.00586H97.5713V18.4989H105.193V16.4229H100.229Z" fill="#EFF6FB"/>
</g>
<mask id="mask2_1221_9010" style="mask-type:luminance" maskUnits="userSpaceOnUse" x="0" y="0" width="180" height="72">
<path d="M180 0H0.166016V71.167H180V0Z" fill="white"/>
</mask>
<g mask="url(#mask2_1221_9010)">
<path d="M118.876 9.00586L116.883 15.1219L114.971 9.00586H112.504L110.495 15.0679L108.583 9.00586H105.817L108.894 18.4989H111.77L113.667 12.7209L115.485 18.4989H118.361L121.439 9.00586H118.876Z" fill="#EFF6FB"/>
</g>
<mask id="mask3_1221_9010" style="mask-type:luminance" maskUnits="userSpaceOnUse" x="0" y="0" width="180" height="72">
<path d="M180 0H0.166016V71.167H180V0Z" fill="white"/>
</mask>
<g mask="url(#mask3_1221_9010)">
<path d="M88.7209 30.8514V28.2414H93.2909V26.7944H88.7209V24.3334H93.8729V22.8594H86.9629V32.3264H94.0629V30.8514H88.7209Z" fill="#EFF6FB"/>
</g>
<mask id="mask4_1221_9010" style="mask-type:luminance" maskUnits="userSpaceOnUse" x="0" y="0" width="180" height="72">
<path d="M180 0H0.166016V71.167H180V0Z" fill="white"/>
</mask>
<g mask="url(#mask4_1221_9010)">
<path d="M96.0234 32.3264H100.16C103.231 32.3264 105.327 30.4314 105.327 27.5914C105.327 24.7514 103.231 22.8594 100.16 22.8594H96.0234V32.3264ZM97.7814 30.8384V24.3464H100.08C102.189 24.3464 103.557 25.6304 103.557 27.5914C103.557 29.5524 102.19 30.8384 100.08 30.8384H97.7814Z" fill="#EFF6FB"/>
</g>
<mask id="mask5_1221_9010" style="mask-type:luminance" maskUnits="userSpaceOnUse" x="0" y="0" width="180" height="72">
<path d="M180 0H0.166016V71.167H180V0Z" fill="white"/>
</mask>
<g mask="url(#mask5_1221_9010)">
<path d="M111.265 32.4614C113.847 32.4614 115.402 30.9604 115.402 28.2004V22.8594H113.673V28.1324C113.673 30.0804 112.807 30.9194 111.278 30.9194C109.751 30.9194 108.872 30.0804 108.872 28.1324V22.8594H107.113V28.2004C107.112 30.9594 108.668 32.4614 111.265 32.4614Z" fill="#EFF6FB"/>
</g>
<mask id="mask6_1221_9010" style="mask-type:luminance" maskUnits="userSpaceOnUse" x="0" y="0" width="180" height="72">
<path d="M180 0H0.166016V71.167H180V0Z" fill="white"/>
</mask>
<g mask="url(#mask6_1221_9010)">
<path d="M122.245 32.4617C123.802 32.4617 125.126 31.9067 126.005 30.8787L124.87 29.7967C124.18 30.5537 123.328 30.9197 122.341 30.9197C120.379 30.9197 118.959 29.5397 118.959 27.5917C118.959 25.6447 120.379 24.2657 122.341 24.2657C123.328 24.2657 124.18 24.6307 124.87 25.3747L126.005 24.3057C125.126 23.2787 123.802 22.7227 122.259 22.7227C119.352 22.7227 117.188 24.7647 117.188 27.5917C117.188 30.4187 119.352 32.4617 122.245 32.4617Z" fill="#EFF6FB"/>
</g>
<mask id="mask7_1221_9010" style="mask-type:luminance" maskUnits="userSpaceOnUse" x="0" y="0" width="180" height="72">
<path d="M180 0H0.166016V71.167H180V0Z" fill="white"/>
</mask>
<g mask="url(#mask7_1221_9010)">
<path d="M134.58 32.3264H136.418L132.145 22.8594H130.415L126.155 32.3264H127.967L128.901 30.1344H133.633L134.58 32.3264ZM129.493 28.7554L131.265 24.6174L133.05 28.7554H129.493Z" fill="#EFF6FB"/>
</g>
<mask id="mask8_1221_9010" style="mask-type:luminance" maskUnits="userSpaceOnUse" x="0" y="0" width="180" height="72">
<path d="M180 0H0.166016V71.167H180V0Z" fill="white"/>
</mask>
<g mask="url(#mask8_1221_9010)">
<path d="M139.069 32.3264H140.826V24.3464H143.964V22.8594H135.931V24.3464H139.07V32.3264H139.069Z" fill="#EFF6FB"/>
</g>
<mask id="mask9_1221_9010" style="mask-type:luminance" maskUnits="userSpaceOnUse" x="0" y="0" width="180" height="72">
<path d="M180 0H0.166016V71.167H180V0Z" fill="white"/>
</mask>
<g mask="url(#mask9_1221_9010)">
<path d="M145.29 32.3264H147.048V22.8594H145.29V32.3264Z" fill="#EFF6FB"/>
</g>
<mask id="mask10_1221_9010" style="mask-type:luminance" maskUnits="userSpaceOnUse" x="0" y="0" width="180" height="72">
<path d="M180 0H0.166016V71.167H180V0Z" fill="white"/>
</mask>
<g mask="url(#mask10_1221_9010)">
<path d="M154.025 32.4617C156.96 32.4617 159.124 30.4057 159.124 27.5917C159.124 24.7797 156.96 22.7227 154.025 22.7227C151.091 22.7227 148.927 24.7927 148.927 27.5917C148.928 30.3927 151.092 32.4617 154.025 32.4617ZM154.025 30.9197C152.118 30.9197 150.699 29.5267 150.699 27.5917C150.699 25.6577 152.118 24.2657 154.025 24.2657C155.932 24.2657 157.353 25.6587 157.353 27.5917C157.354 29.5267 155.933 30.9197 154.025 30.9197Z" fill="#EFF6FB"/>
</g>
<mask id="mask11_1221_9010" style="mask-type:luminance" maskUnits="userSpaceOnUse" x="0" y="0" width="180" height="72">
<path d="M180 0H0.166016V71.167H180V0Z" fill="white"/>
</mask>
<g mask="url(#mask11_1221_9010)">
<path d="M167.657 22.8594V29.2694L162.438 22.8594H160.99V32.3264H162.735V25.9144L167.954 32.3264H169.402V22.8594H167.657Z" fill="#EFF6FB"/>
</g>
<mask id="mask12_1221_9010" style="mask-type:luminance" maskUnits="userSpaceOnUse" x="0" y="0" width="180" height="72">
<path d="M180 0H0.166016V71.167H180V0Z" fill="white"/>
</mask>
<g mask="url(#mask12_1221_9010)">
<path d="M89.8701 45.0443C92.3721 45.0443 93.5341 43.8023 93.5341 42.3553C93.5341 38.8783 87.8001 40.3263 87.8001 38.0133C87.8001 37.1893 88.4901 36.5133 90.1011 36.5133C90.9391 36.5133 91.8721 36.7553 92.6971 37.2833L93.1431 36.2013C92.3591 35.6603 91.2091 35.3633 90.1011 35.3633C87.6131 35.3633 86.4771 36.6073 86.4771 38.0683C86.4771 41.5843 92.2091 40.1233 92.2091 42.4353C92.2091 43.2593 91.5061 43.8963 89.8701 43.8963C88.6521 43.8963 87.4481 43.4373 86.7461 42.8003L86.2461 43.8553C87.0031 44.5583 88.4231 45.0443 89.8701 45.0443Z" fill="#EFF6FB"/>
</g>
<mask id="mask13_1221_9010" style="mask-type:luminance" maskUnits="userSpaceOnUse" x="0" y="0" width="180" height="72">
<path d="M180 0H0.166016V71.167H180V0Z" fill="white"/>
</mask>
<g mask="url(#mask13_1221_9010)">
<path d="M98.247 44.9377H99.585V36.6487H102.83V35.4707H95.001V36.6487H98.247V44.9377Z" fill="#EFF6FB"/>
</g>
<mask id="mask14_1221_9010" style="mask-type:luminance" maskUnits="userSpaceOnUse" x="0" y="0" width="180" height="72">
<path d="M180 0H0.166016V71.167H180V0Z" fill="white"/>
</mask>
<g mask="url(#mask14_1221_9010)">
<path d="M111.896 44.9377H113.316L109.015 35.4707H107.677L103.39 44.9377H104.784L105.825 42.5707H110.854L111.896 44.9377ZM106.299 41.4877L108.34 36.8507L110.382 41.4877H106.299Z" fill="#EFF6FB"/>
</g>
<mask id="mask15_1221_9010" style="mask-type:luminance" maskUnits="userSpaceOnUse" x="0" y="0" width="180" height="72">
<path d="M180 0H0.166016V71.167H180V0Z" fill="white"/>
</mask>
<g mask="url(#mask15_1221_9010)">
<path d="M122.504 35.4707V42.5297L116.825 35.4707H115.716V44.9377H117.068V37.8787L122.747 44.9377H123.857V35.4707H122.504Z" fill="#EFF6FB"/>
</g>
<mask id="mask16_1221_9010" style="mask-type:luminance" maskUnits="userSpaceOnUse" x="0" y="0" width="180" height="72">
<path d="M180 0H0.166016V71.167H180V0Z" fill="white"/>
</mask>
<g mask="url(#mask16_1221_9010)">
<path d="M127.688 44.9387H131.678C134.721 44.9387 136.789 43.0187 136.789 40.2067C136.789 37.3927 134.721 35.4727 131.678 35.4727H127.688V44.9387ZM129.042 43.7607V36.6497H131.598C133.937 36.6497 135.438 38.0837 135.438 40.2067C135.438 42.3297 133.937 43.7617 131.598 43.7617H129.042V43.7607Z" fill="#EFF6FB"/>
</g>
<mask id="mask17_1221_9010" style="mask-type:luminance" maskUnits="userSpaceOnUse" x="0" y="0" width="180" height="72">
<path d="M180 0H0.166016V71.167H180V0Z" fill="white"/>
</mask>
<g mask="url(#mask17_1221_9010)">
<path d="M146.789 44.9377H148.21L143.909 35.4707H142.569L138.283 44.9377H139.677L140.717 42.5707H145.748L146.789 44.9377ZM141.19 41.4877L143.233 36.8507L145.274 41.4877H141.19Z" fill="#EFF6FB"/>
</g>
<mask id="mask18_1221_9010" style="mask-type:luminance" maskUnits="userSpaceOnUse" x="0" y="0" width="180" height="72">
<path d="M180 0H0.166016V71.167H180V0Z" fill="white"/>
</mask>
<g mask="url(#mask18_1221_9010)">
<path d="M158.411 44.9377L156.167 41.7597C157.491 41.2867 158.25 40.2307 158.25 38.7717C158.25 36.7147 156.763 35.4707 154.301 35.4707H150.61V44.9377H151.963V42.0567H154.302C154.503 42.0567 154.707 42.0427 154.897 42.0297L156.939 44.9377H158.411ZM154.261 40.9077H151.962V36.6477H154.261C155.99 36.6477 156.897 37.4177 156.897 38.7707C156.896 40.1227 155.99 40.9077 154.261 40.9077Z" fill="#EFF6FB"/>
</g>
<mask id="mask19_1221_9010" style="mask-type:luminance" maskUnits="userSpaceOnUse" x="0" y="0" width="180" height="72">
<path d="M180 0H0.166016V71.167H180V0Z" fill="white"/>
</mask>
<g mask="url(#mask19_1221_9010)">
<path d="M161.432 44.9387H165.422C168.465 44.9387 170.533 43.0187 170.533 40.2067C170.533 37.3927 168.465 35.4727 165.422 35.4727H161.432V44.9387ZM162.785 43.7607V36.6497H165.341C167.681 36.6497 169.183 38.0837 169.183 40.2067C169.183 42.3297 167.681 43.7617 165.341 43.7617H162.785V43.7607Z" fill="#EFF6FB"/>
</g>
<mask id="mask20_1221_9010" style="mask-type:luminance" maskUnits="userSpaceOnUse" x="0" y="0" width="180" height="72">
<path d="M180 0H0.166016V71.167H180V0Z" fill="white"/>
</mask>
<g mask="url(#mask20_1221_9010)">
<path d="M94.4129 57.67H95.1559L90.8019 48.207H90.1129L85.7589 57.67H86.5029L87.7059 55.008H93.1949L94.4129 57.67ZM87.9769 54.426L90.4509 48.963L92.9389 54.426H87.9769ZM94.2839 70.043H95.0269L90.6729 60.578H89.9839L85.6299 70.043H86.3749L87.5779 67.379H93.0659L94.2839 70.043ZM87.8489 66.799L90.3219 61.336L92.8109 66.799H87.8489ZM170.468 70.043H171.212L166.858 60.578H166.168L161.814 70.043H162.559L163.761 67.379H169.25L170.468 70.043ZM164.032 66.799L166.505 61.336L168.994 66.799H164.032Z" fill="#EFF6FB"/>
</g>
<mask id="mask21_1221_9010" style="mask-type:luminance" maskUnits="userSpaceOnUse" x="0" y="0" width="180" height="72">
<path d="M180 0H0.166016V71.167H180V0Z" fill="white"/>
</mask>
<g mask="url(#mask21_1221_9010)">
<path d="M112.883 48.207L109.977 56.738L107.029 48.207H106.367L103.406 56.725L100.526 48.207H99.7969L103.014 57.67H103.743L106.691 49.18L109.626 57.67H110.356L113.559 48.207H112.883Z" fill="#EFF6FB"/>
</g>
<mask id="mask22_1221_9010" style="mask-type:luminance" maskUnits="userSpaceOnUse" x="0" y="0" width="180" height="72">
<path d="M180 0H0.166016V71.167H180V0Z" fill="white"/>
</mask>
<g mask="url(#mask22_1221_9010)">
<path d="M126.853 57.67H127.597L123.243 48.207H122.553L118.199 57.67H118.943L120.147 55.008H125.636L126.853 57.67ZM120.416 54.426L122.891 48.963L125.379 54.426H120.416Z" fill="#EFF6FB"/>
</g>
<mask id="mask23_1221_9010" style="mask-type:luminance" maskUnits="userSpaceOnUse" x="0" y="0" width="180" height="72">
<path d="M180 0H0.166016V71.167H180V0Z" fill="white"/>
</mask>
<g mask="url(#mask23_1221_9010)">
<path d="M141.187 57.67L138.821 54.357C140.227 53.939 141.038 52.898 141.038 51.396C141.038 49.396 139.605 48.207 137.225 48.207H133.831V57.67H134.52V54.574H137.224C137.548 54.574 137.845 54.549 138.144 54.508L140.403 57.67H141.187ZM134.521 53.967V48.828H137.225C139.254 48.828 140.334 49.762 140.334 51.396C140.334 53.019 139.254 53.966 137.225 53.966L134.521 53.967Z" fill="#EFF6FB"/>
</g>
<mask id="mask24_1221_9010" style="mask-type:luminance" maskUnits="userSpaceOnUse" x="0" y="0" width="180" height="72">
<path d="M180 0H0.166016V71.167H180V0Z" fill="white"/>
</mask>
<g mask="url(#mask24_1221_9010)">
<path d="M148.084 57.669H151.829C154.831 57.669 156.858 55.696 156.858 52.939C156.858 50.179 154.831 48.207 151.829 48.207H148.084V57.669ZM148.773 57.048V48.827H151.774C154.451 48.827 156.17 50.53 156.17 52.938C156.17 55.344 154.451 57.047 151.774 57.047L148.773 57.048Z" fill="#EFF6FB"/>
</g>
<mask id="mask25_1221_9010" style="mask-type:luminance" maskUnits="userSpaceOnUse" x="0" y="0" width="180" height="72">
<path d="M180 0H0.166016V71.167H180V0Z" fill="white"/>
</mask>
<g mask="url(#mask25_1221_9010)">
<path d="M166.258 57.7377C168.596 57.7377 169.665 56.5757 169.665 55.2377C169.665 51.8017 163.756 53.4797 163.756 50.6377C163.756 49.5987 164.581 48.7447 166.419 48.7447C167.273 48.7447 168.232 49.0027 169.015 49.5437L169.273 48.9887C168.543 48.4617 167.46 48.1367 166.419 48.1367C164.094 48.1367 163.066 49.3127 163.066 50.6527C163.066 54.1407 168.974 52.4357 168.974 55.2777C168.974 56.3027 168.136 57.1297 166.244 57.1297C164.972 57.1297 163.768 56.6157 163.121 55.9387L162.808 56.4547C163.499 57.2107 164.852 57.7377 166.258 57.7377Z" fill="#EFF6FB"/>
</g>
<mask id="mask26_1221_9010" style="mask-type:luminance" maskUnits="userSpaceOnUse" x="0" y="0" width="180" height="72">
<path d="M180 0H0.166016V71.167H180V0Z" fill="white"/>
</mask>
<g mask="url(#mask26_1221_9010)">
<path opacity="0.9981" d="M25.7895 8.03906C25.7895 8.03906 -3.25153 27.0281 5.85147 40.2331C8.76847 44.7991 18.2295 49.0791 44.4705 54.4871C52.0525 56.4891 55.4045 60.1471 53.3905 63.0161C53.3905 63.0161 60.4055 56.4531 51.9545 52.2331C43.3845 48.2001 14.4965 44.7081 8.23647 37.0691C7.27647 35.2551 2.14148 29.9191 32.3445 10.6011" fill="url(#paint0_radial_1221_9010)"/>
</g>
<mask id="mask27_1221_9010" style="mask-type:luminance" maskUnits="userSpaceOnUse" x="0" y="0" width="180" height="72">
<path d="M180 0H0.166016V71.167H180V0Z" fill="white"/>
</mask>
<g mask="url(#mask27_1221_9010)">
<path opacity="0.9981" d="M32.7256 62.3779C34.6776 62.5089 35.8336 62.7119 39.1166 63.0169C45.7656 63.8669 48.4936 66.1479 47.2866 68.7879C47.2866 68.7879 51.7416 63.4479 44.4486 61.0669C42.7876 60.5669 39.4136 59.6709 36.9406 59.3379" fill="url(#paint1_radial_1221_9010)"/>
</g>
<mask id="mask28_1221_9010" style="mask-type:luminance" maskUnits="userSpaceOnUse" x="0" y="0" width="180" height="72">
<path d="M180 0H0.166016V71.167H180V0Z" fill="white"/>
</mask>
<g mask="url(#mask28_1221_9010)">
<path opacity="0.9981" d="M27.5215 67.9666C29.0995 67.9666 31.1465 67.6816 33.7375 67.5486C39.1195 66.9916 41.4955 68.1676 40.8535 70.3596C40.8535 70.3596 43.7385 65.9436 37.7445 64.8636C36.3955 64.6626 33.2965 64.2656 30.9925 64.2656" fill="url(#paint2_radial_1221_9010)"/>
</g>
<mask id="mask29_1221_9010" style="mask-type:luminance" maskUnits="userSpaceOnUse" x="0" y="0" width="180" height="72">
<path d="M180 0H0.166016V71.167H180V0Z" fill="white"/>
</mask>
<g mask="url(#mask29_1221_9010)">
<path opacity="0.9981" d="M47.1478 7.64453C47.1478 7.64453 3.54479 32.2115 4.59079 45.4675C4.83979 49.9035 5.98679 57.3875 32.9728 62.3775C34.3128 61.3405 36.9798 59.3615 36.9798 59.3615C36.9798 59.3615 18.9468 55.4205 13.9758 53.1725C10.4598 51.4555 6.19879 48.6745 14.2878 41.3595C19.5948 36.4905 32.8498 26.8275 52.4468 14.9785" fill="url(#paint3_radial_1221_9010)"/>
</g>
<mask id="mask30_1221_9010" style="mask-type:luminance" maskUnits="userSpaceOnUse" x="0" y="0" width="180" height="72">
<path d="M180 0H0.166016V71.167H180V0Z" fill="white"/>
</mask>
<g mask="url(#mask30_1221_9010)">
<path opacity="0.9981" d="M69.7505 11.9766C69.7505 11.9766 26.3825 33.6816 12.0165 55.0156C11.2785 56.1386 10.4335 57.3316 10.9105 57.9846C11.3875 58.6346 13.7285 61.9596 17.1615 63.8656C17.1615 63.8656 15.2615 61.9866 15.8175 61.1296C16.6515 60.0786 28.5105 41.3346 76.6825 21.4806" fill="url(#paint4_radial_1221_9010)"/>
</g>
<mask id="mask31_1221_9010" style="mask-type:luminance" maskUnits="userSpaceOnUse" x="0" y="0" width="180" height="72">
<path d="M180 0H0.166016V71.167H180V0Z" fill="white"/>
</mask>
<g mask="url(#mask31_1221_9010)">
<path opacity="0.9981" d="M68.5303 33.8555C68.5303 33.8555 31.0373 48.2345 18.9473 65.1715C18.9473 65.1715 21.8733 68.4745 27.6913 67.9605C27.6913 67.9605 32.4443 58.1815 67.6703 43.4425" fill="url(#paint5_radial_1221_9010)"/>
</g>
<mask id="mask32_1221_9010" style="mask-type:luminance" maskUnits="userSpaceOnUse" x="0" y="0" width="180" height="72">
<path d="M180 0H0.166016V71.167H180V0Z" fill="white"/>
</mask>
<g mask="url(#mask32_1221_9010)">
<path d="M52.7438 8.98294L57.6498 10.1069L53.0898 12.1209L53.3898 17.0149L50.2228 13.3779L45.3738 15.2549L48.0968 11.0139L44.8818 7.05994L49.8138 8.17194L52.2398 4.21094L52.7438 8.98294Z" fill="#EFF6FB"/>
</g>
<mask id="mask33_1221_9010" style="mask-type:luminance" maskUnits="userSpaceOnUse" x="0" y="0" width="180" height="72">
<path d="M180 0H0.166016V71.167H180V0Z" fill="white"/>
</mask>
<g mask="url(#mask33_1221_9010)">
<path d="M69.1755 38.3687L74.0825 39.4917L69.5225 41.5057L69.8225 46.4007L66.6555 42.7617L61.8055 44.6407L64.5295 40.4007L61.3145 36.4477L66.2475 37.5587L68.6735 33.5977L69.1755 38.3687Z" fill="#EFF6FB"/>
</g>
<mask id="mask34_1221_9010" style="mask-type:luminance" maskUnits="userSpaceOnUse" x="0" y="0" width="180" height="72">
<path d="M180 0H0.166016V71.167H180V0Z" fill="white"/>
</mask>
<g mask="url(#mask34_1221_9010)">
<path d="M76.6125 12.9454L82.7005 14.3404L77.0425 16.8404L77.4155 22.9124L73.4845 18.4004L67.4665 20.7304L70.8465 15.4664L66.8555 10.5604L72.9765 11.9394L75.9875 7.02344L76.6125 12.9454Z" fill="#EFF6FB"/>
</g>
<mask id="mask35_1221_9010" style="mask-type:luminance" maskUnits="userSpaceOnUse" x="0" y="0" width="180" height="72">
<path d="M180 0H0.166016V71.167H180V0Z" fill="white"/>
</mask>
<g mask="url(#mask35_1221_9010)">
<path opacity="0.9981" d="M7.65143 32.4355C4.31143 37.3695 5.90943 40.3745 5.90943 40.3745C6.92743 38.5655 8.21143 36.9505 8.21143 36.9505C6.62843 34.8175 7.65143 32.4355 7.65143 32.4355ZM14.5294 41.1425C14.4704 41.1975 14.3494 41.2985 14.2924 41.3515C12.9134 42.5975 11.8894 43.6855 11.1644 44.6855C12.9154 45.6425 15.3394 46.6795 18.0714 47.6675C19.2414 46.4405 20.5254 45.1265 21.8204 43.9175C19.0414 43.0625 16.7464 42.1495 14.5294 41.1425ZM30.9704 46.4565C29.2364 47.7765 27.6324 49.0245 26.2474 50.2045C28.3174 50.7785 30.8934 51.4385 33.3614 52.0365C35.1514 50.8115 37.1354 49.5115 38.9994 48.3745C36.4074 47.7455 33.7294 47.1455 30.9704 46.4565ZM9.86543 47.1655C9.86543 47.1655 7.68643 51.1405 7.76943 52.8025C8.47043 53.4685 9.69743 54.6815 11.6064 55.6675C11.6064 55.6675 12.7954 53.5775 13.4954 52.9505C13.4954 52.9505 11.2894 51.9565 10.0714 50.1165C9.59143 49.1285 9.52543 48.2395 9.86543 47.1655ZM50.2584 51.5115C48.2864 52.5405 46.3124 53.5975 44.6674 54.5445C52.2694 56.6425 55.2464 60.1615 53.3874 63.0245C53.3874 63.0245 60.4384 56.4615 51.9874 52.2415C51.5384 52.0305 50.8134 51.7205 50.2584 51.5115ZM20.7574 55.3995C19.3574 56.8445 18.6674 57.5495 17.9234 58.4695C19.5234 59.0495 21.3104 59.6315 23.3254 60.1825C24.4304 59.0945 25.7294 58.0455 26.9864 56.9945C24.8994 56.4765 22.7594 55.9585 20.7574 55.3995ZM37.0494 59.3535C36.3624 59.8355 35.6314 60.3675 35.0394 60.8125C34.6544 61.1015 34.4974 61.2385 34.0814 61.5505C33.6684 61.8725 33.3694 62.1075 33.0054 62.4095C34.7934 62.5425 35.9954 62.7275 39.1164 63.0165C45.7654 63.8665 48.4634 66.1415 47.2934 68.7725C47.2934 68.7725 51.7524 63.4505 44.4594 61.0675C42.7604 60.4745 39.5074 59.7025 37.0494 59.3535ZM15.7684 61.1875C15.7684 61.1875 15.0964 62.1485 15.0004 62.3965C15.0004 62.3965 17.0344 64.1775 18.9264 65.2015C18.9264 65.2015 19.3164 64.6525 19.4574 64.4635C19.4574 64.4635 18.7284 64.4145 17.1914 63.2405C17.0224 63.0425 15.4744 61.7885 15.7684 61.1875ZM30.8824 64.2555C30.8824 64.2555 29.9824 65.0385 29.1704 65.9685C28.3574 66.8985 27.6064 67.9765 27.6064 67.9765C29.1654 67.9585 31.3404 67.7555 33.7754 67.5335C39.1324 67.0785 41.4124 68.1645 40.8534 70.3595C40.8534 70.3595 43.7534 65.9435 37.7594 64.8635C36.4084 64.6595 33.1864 64.2555 30.8824 64.2555Z" fill="url(#paint6_linear_1221_9010)"/>
</g>
<mask id="mask36_1221_9010" style="mask-type:luminance" maskUnits="userSpaceOnUse" x="0" y="0" width="180" height="72">
<path d="M180 0H0.166016V71.167H180V0Z" fill="white"/>
</mask>
<g mask="url(#mask36_1221_9010)">
<path d="M31.3942 7.772L36.3012 8.897L31.7412 10.911L32.0412 15.804L28.8742 12.168L24.0252 14.046L26.7502 9.804L23.5332 5.85L28.4662 6.961L30.8912 3L31.3942 7.772Z" fill="#EFF6FB"/>
</g>
<mask id="mask37_1221_9010" style="mask-type:luminance" maskUnits="userSpaceOnUse" x="0" y="0" width="180" height="72">
<path d="M180 0H0.166016V71.167H180V0Z" fill="white"/>
</mask>
<g mask="url(#mask37_1221_9010)">
<path d="M52.7438 8.98294L57.6498 10.1069L53.0898 12.1209L53.3898 17.0149L50.2228 13.3779L45.3738 15.2549L48.0968 11.0139L44.8818 7.05994L49.8138 8.17194L52.2398 4.21094L52.7438 8.98294Z" fill="#EFF6FB"/>
</g>
<mask id="mask38_1221_9010" style="mask-type:luminance" maskUnits="userSpaceOnUse" x="0" y="0" width="180" height="72">
<path d="M180 0H0.166016V71.167H180V0Z" fill="white"/>
</mask>
<g mask="url(#mask38_1221_9010)">
<path d="M69.1755 38.3687L74.0825 39.4917L69.5225 41.5057L69.8225 46.4007L66.6555 42.7617L61.8055 44.6407L64.5295 40.4007L61.3145 36.4477L66.2475 37.5587L68.6735 33.5977L69.1755 38.3687Z" fill="#EFF6FB"/>
</g>
<mask id="mask39_1221_9010" style="mask-type:luminance" maskUnits="userSpaceOnUse" x="0" y="0" width="180" height="72">
<path d="M180 0H0.166016V71.167H180V0Z" fill="white"/>
</mask>
<g mask="url(#mask39_1221_9010)">
<path d="M76.6125 12.9454L82.7005 14.3404L77.0425 16.8404L77.4155 22.9124L73.4845 18.4004L67.4665 20.7304L70.8465 15.4664L66.8555 10.5604L72.9765 11.9394L75.9875 7.02344L76.6125 12.9454Z" fill="#EFF6FB"/>
</g>
<mask id="mask40_1221_9010" style="mask-type:luminance" maskUnits="userSpaceOnUse" x="0" y="0" width="180" height="72">
<path d="M180 0H0.166016V71.167H180V0Z" fill="white"/>
</mask>
<g mask="url(#mask40_1221_9010)">
<path d="M104.108 70.047H103.312V60.373H109.556V60.996H104.108V65.098H109.251V65.727H104.108V70.047Z" fill="#EFF6FB"/>
</g>
<mask id="mask41_1221_9010" style="mask-type:luminance" maskUnits="userSpaceOnUse" x="0" y="0" width="180" height="72">
<path d="M180 0H0.166016V71.167H180V0Z" fill="white"/>
</mask>
<g mask="url(#mask41_1221_9010)">
<path d="M136.919 70.047V60.373H137.619V70.047H136.919Z" fill="#EFF6FB"/>
</g>
<mask id="mask42_1221_9010" style="mask-type:luminance" maskUnits="userSpaceOnUse" x="0" y="0" width="180" height="72">
<path d="M180 0H0.166016V71.167H180V0Z" fill="white"/>
</mask>
<g mask="url(#mask42_1221_9010)">
<path d="M152.507 60.732C151.144 60.732 150.069 61.121 149.285 61.896C148.5 62.673 148.109 63.736 148.109 65.085C148.109 66.466 148.477 67.536 149.216 68.3C149.956 69.064 151.013 69.445 152.388 69.445C153.301 69.445 154.139 69.341 154.904 69.134V69.73C154.184 69.955 153.286 70.068 152.21 70.068C150.681 70.068 149.479 69.629 148.6 68.75C147.722 67.873 147.283 66.646 147.283 65.072C147.283 64.088 147.493 63.222 147.912 62.472C148.331 61.722 148.934 61.142 149.721 60.734C150.507 60.328 151.422 60.123 152.464 60.123C153.526 60.123 154.476 60.299 155.315 60.652L155.01 61.261C154.214 60.908 153.381 60.732 152.507 60.732Z" fill="#EFF6FB"/>
</g>
<mask id="mask43_1221_9010" style="mask-type:luminance" maskUnits="userSpaceOnUse" x="0" y="0" width="180" height="72">
<path d="M180 0H0.166016V71.167H180V0Z" fill="white"/>
</mask>
<g mask="url(#mask43_1221_9010)">
<path d="M126.25 69.8576L123.883 66.5446C125.289 66.1246 126.1 65.0836 126.1 63.5816C126.1 61.5816 124.667 60.3926 122.287 60.3926H118.893V69.8576H119.582V66.7616H122.286C122.61 66.7616 122.908 66.7346 123.207 66.6936L125.465 69.8576H126.25ZM119.583 66.1526V61.0136H122.287C124.316 61.0136 125.396 61.9476 125.396 63.5816C125.396 65.2046 124.316 66.1516 122.287 66.1516L119.583 66.1526Z" fill="#EFF6FB"/>
</g>
</g>
<defs>
<radialGradient id="paint0_radial_1221_9010" cx="0" cy="0" r="1" gradientUnits="userSpaceOnUse" gradientTransform="translate(30.0961 35.5206) scale(26.0155)">
<stop stop-color="white"/>
<stop offset="0.8271" stop-color="#E0AA3E"/>
</radialGradient>
<radialGradient id="paint1_radial_1221_9010" cx="0" cy="0" r="1" gradientUnits="userSpaceOnUse" gradientTransform="translate(40.6821 64.0588) scale(7.95918 7.95918)">
<stop stop-color="white"/>
<stop offset="0.8271" stop-color="#E0AA3E"/>
</radialGradient>
<radialGradient id="paint2_radial_1221_9010" cx="0" cy="0" r="1" gradientUnits="userSpaceOnUse" gradientTransform="translate(34.5342 67.3153) scale(7.01919 7.01919)">
<stop stop-color="white"/>
<stop offset="0.8271" stop-color="#E0AA3E"/>
</radialGradient>
<radialGradient id="paint3_radial_1221_9010" cx="0" cy="0" r="1" gradientUnits="userSpaceOnUse" gradientTransform="translate(28.5002 35.0257) scale(23.9557 23.9557)">
<stop stop-color="white"/>
<stop offset="0.8271" stop-color="#E0AA3E"/>
</radialGradient>
<radialGradient id="paint4_radial_1221_9010" cx="0" cy="0" r="1" gradientUnits="userSpaceOnUse" gradientTransform="translate(43.7338 37.9407) scale(32.9632)">
<stop stop-color="white"/>
<stop offset="0.8271" stop-color="#E0AA3E"/>
</radialGradient>
<radialGradient id="paint5_radial_1221_9010" cx="0" cy="0" r="1" gradientUnits="userSpaceOnUse" gradientTransform="translate(43.7478 50.9252) scale(24.7792 24.7792)">
<stop stop-color="white"/>
<stop offset="0.8271" stop-color="#E0AA3E"/>
</radialGradient>
<linearGradient id="paint6_linear_1221_9010" x1="5.52733" y1="51.397" x2="56.144" y2="51.397" gradientUnits="userSpaceOnUse">
<stop stop-color="#E0AA3E"/>
<stop offset="1"/>
</linearGradient>
<clipPath id="clip0_1221_9010">
<rect width="178" height="73" fill="white"/>
</clipPath>
</defs>
</svg>
