<svg width="81" height="81" viewBox="0 0 81 81" fill="none" xmlns="http://www.w3.org/2000/svg">
<path d="M40.5013 11.6416C21.868 11.6416 7.16797 21.0416 7.16797 33.1749V48.4416C7.16797 60.5083 21.8013 69.9749 40.5013 69.9749C59.2013 69.9749 73.8346 60.5083 73.8346 48.4416V33.2083C73.8346 21.1083 59.068 11.6416 40.5013 11.6416ZM40.5013 21.2083C52.8013 21.2083 62.068 26.3749 62.068 33.2083C62.0102 35.2536 61.1898 37.2035 59.768 38.6749C56.4346 42.6083 48.9013 45.1083 40.5013 45.1083C32.1013 45.1083 24.668 42.6083 21.1346 38.4416C19.753 36.9927 18.9676 35.0767 18.9346 33.0749C18.8013 26.3749 28.068 21.2083 40.5013 21.2083ZM68.8346 48.4416C68.8346 57.4083 55.868 65.1083 40.5013 65.1083C25.1346 65.1083 12.168 57.5416 12.168 48.4416V44.6083C18.1013 50.8416 28.8346 54.6083 40.5013 54.6083C52.168 54.6083 62.9346 50.6749 68.8346 44.6083V48.4416Z" fill="url(#paint0_linear_1102_30212)"/>
<path d="M56.9341 33.1757C56.8885 33.992 56.5445 34.7631 55.9674 35.3423C53.8341 37.7757 48.2008 40.1757 40.3674 40.1757C32.5341 40.1757 27.0341 37.7757 24.6674 35.2423C24.1331 34.6977 23.8237 33.9716 23.8008 33.209C23.8008 29.8757 30.8674 26.209 40.4674 26.209C50.0674 26.209 56.9008 29.8757 56.9341 33.1757Z" fill="url(#paint1_linear_1102_30212)"/>
<defs>
<linearGradient id="paint0_linear_1102_30212" x1="3.12035" y1="40.8083" x2="111.692" y2="40.8083" gradientUnits="userSpaceOnUse">
<stop stop-color="#FFC247"/>
<stop offset="1" stop-color="#E48900"/>
</linearGradient>
<linearGradient id="paint1_linear_1102_30212" x1="21.7891" y1="33.1923" x2="75.7491" y2="33.1923" gradientUnits="userSpaceOnUse">
<stop stop-color="#FFC247"/>
<stop offset="1" stop-color="#E48900"/>
</linearGradient>
</defs>
</svg>
